<svg width="28" height="28" viewBox="0 0 28 28" fill="none" xmlns="http://www.w3.org/2000/svg">
<path d="M15.3022 6.45166C17.1969 6.45166 18.1448 6.45215 18.8784 6.79736C19.642 7.15673 20.2564 7.7711 20.6157 8.53467C20.9609 9.26829 20.9614 10.2161 20.9614 12.1108V15.3022C20.9614 17.1969 20.9609 18.1448 20.6157 18.8784C20.3186 19.5098 19.8453 20.0363 19.2593 20.4038C19.244 20.3847 19.2296 20.3659 19.2144 20.3491C18.6387 19.7168 17.9067 19.4305 17.1392 19.1382L17.147 19.1548L17.1587 19.3179C17.1652 19.4596 17.1626 19.6034 17.1616 19.7446C17.1615 19.7672 17.1616 19.7896 17.1616 19.812L17.1079 20.9399C16.9434 20.9465 16.7678 20.9517 16.5796 20.9546L16.6001 20.7466L16.5991 18.9351C16.5921 18.926 16.0062 18.5599 15.9204 18.4946C15.8635 18.5785 15.8039 18.6607 15.7427 18.7407C15.5592 18.9806 15.3556 19.2003 15.1265 19.3833C14.9541 19.521 14.7673 19.6372 14.564 19.7261C14.4068 19.7947 14.2401 19.8475 14.062 19.8794C13.6165 19.9591 13.1937 19.904 12.814 19.7446C12.7599 19.7219 12.7071 19.6963 12.6548 19.6694C12.3401 19.5081 12.0592 19.2739 11.8237 18.9868C11.7453 18.8912 11.6718 18.7897 11.604 18.6831C11.576 18.6391 11.5499 18.592 11.5239 18.5454L11.4419 18.4106C11.266 18.5294 10.6359 18.7785 10.6069 18.936C10.5365 19.3258 10.5302 19.7235 10.5298 20.1187L10.5708 20.9478C10.3581 20.9424 10.1628 20.9344 9.98193 20.9224C9.97516 20.745 9.97225 20.5674 9.97412 20.3911C9.97583 20.227 9.98175 20.0635 9.98975 19.9028L10.0229 19.3989C10.0316 19.3014 10.0479 19.2038 10.0513 19.106L10.0288 19.0991C9.91629 19.138 9.79754 19.1795 9.67627 19.2241C9.43387 19.3132 9.17871 19.4156 8.92822 19.5347C8.803 19.5942 8.67861 19.6573 8.55811 19.7261C8.43724 19.795 8.3201 19.8693 8.2085 19.9487C8.09237 20.0314 7.98239 20.12 7.88135 20.2153C7.42131 19.8644 7.04691 19.4086 6.79736 18.8784C6.45215 18.1448 6.45166 17.1969 6.45166 15.3022V12.1108C6.45166 10.2161 6.45215 9.26829 6.79736 8.53467C7.15673 7.7711 7.7711 7.15673 8.53467 6.79736C9.26829 6.45215 10.2161 6.45166 12.1108 6.45166H15.3022ZM11.896 18.0659C12.0539 18.531 12.4802 18.9679 12.9077 19.1821C13.1352 19.296 13.3644 19.3504 13.5903 19.356C13.9063 19.3638 14.2151 19.2763 14.5015 19.1226C14.6652 19.0346 14.8222 18.925 14.9683 18.7993C15.0718 18.6975 15.1607 18.5943 15.2417 18.4849C15.3227 18.3752 15.3959 18.2591 15.4663 18.1313C15.4547 18.113 15.44 18.0963 15.4263 18.0786C15.393 18.0361 15.3564 17.9938 15.3169 17.9536C15.2611 17.8965 15.2035 17.8402 15.1567 17.7808H15.1558C15.0603 17.8588 14.9626 17.9276 14.8628 17.9868C14.8128 18.0165 14.7623 18.0438 14.7114 18.0688C14.6604 18.0939 14.609 18.1168 14.5571 18.1372C14.2472 18.2595 13.9248 18.2993 13.603 18.2603C13.2813 18.2212 12.9606 18.1031 12.6538 17.9116L12.354 17.7114L11.896 18.0659ZM16.0923 13.689C15.4628 13.1969 14.5968 12.9029 13.7983 12.9858C13.0719 13.0451 12.2876 13.3164 11.7085 13.7808C11.3859 14.0393 11.2436 13.9499 11.02 13.5991C10.9115 13.8822 10.9491 14.3823 11.1958 14.5728C11.3093 14.6603 11.3675 14.6948 11.4009 14.7251C11.4564 14.7757 11.4414 14.8163 11.4897 15.0825C11.5025 15.1529 11.5175 15.2252 11.5356 15.2983C11.5538 15.3716 11.5747 15.446 11.5981 15.521C11.6835 15.7944 11.8044 16.0756 11.9546 16.3423C11.9794 16.3864 12.0052 16.43 12.0317 16.4731C12.1529 16.6706 12.2899 16.8579 12.4438 17.0229C12.5429 17.1293 12.6496 17.2252 12.7612 17.311C12.9009 17.4184 13.0488 17.5091 13.2065 17.5747C13.4197 17.6634 13.6485 17.7096 13.8911 17.6987C13.9402 17.696 13.9884 17.6872 14.0366 17.6792C14.0512 17.6768 14.0661 17.6762 14.0806 17.6733C14.1183 17.6659 14.1547 17.6535 14.1919 17.6431C14.2179 17.6358 14.2443 17.6303 14.27 17.6216C14.3103 17.6079 14.3496 17.5916 14.3892 17.5747C14.4107 17.5655 14.4323 17.5565 14.4536 17.5464C14.4866 17.5307 14.5189 17.5134 14.5513 17.4956C14.579 17.4804 14.607 17.4654 14.6343 17.4487C14.6681 17.428 14.7008 17.4052 14.7339 17.3823C14.7561 17.367 14.7784 17.3517 14.8003 17.3354C14.833 17.3111 14.865 17.2855 14.897 17.2593C14.9237 17.2374 14.9509 17.216 14.9771 17.1929C15.0064 17.1669 15.0344 17.1392 15.063 17.1118C15.0812 17.0943 15.0998 17.0771 15.1177 17.0591C15.1547 17.0219 15.1905 16.9832 15.2261 16.9438C15.2367 16.9321 15.2478 16.9206 15.2583 16.9087C15.2917 16.8709 15.3249 16.8328 15.3569 16.7935C15.3778 16.7678 15.3981 16.7416 15.4185 16.7153C15.4489 16.676 15.4792 16.6366 15.5083 16.5962C15.5172 16.5838 15.5249 16.5706 15.5337 16.5581C15.5656 16.5127 15.5982 16.4678 15.6284 16.4214C15.6389 16.4053 15.6485 16.3887 15.6587 16.3726C15.6863 16.3289 15.7128 16.2848 15.7388 16.2407C15.7511 16.2198 15.7639 16.1992 15.7759 16.1782C15.7989 16.1377 15.7997 16.0968 15.8213 16.0562C15.8383 16.0242 15.855 15.9924 15.8711 15.9604C15.8859 15.931 15.901 15.9019 15.915 15.8726C15.9376 15.8254 15.959 15.7785 15.9795 15.7319C16.0143 15.6527 16.0468 15.5749 16.0752 15.4985L16.1387 15.3149C16.1924 15.1435 16.2005 14.9402 16.2715 14.7788C16.3286 14.6499 16.447 14.6212 16.5469 14.5405C16.6324 14.4712 16.69 14.3524 16.7217 14.2173C16.7429 14.1269 16.7528 14.0292 16.751 13.9341C16.7491 13.8391 16.7359 13.7467 16.7119 13.6665C16.6999 13.6263 16.6854 13.5889 16.668 13.5562L16.667 13.5571V13.5562C16.5163 13.9184 16.3736 13.9252 16.0713 13.689ZM13.0488 9.48291C12.4449 9.68301 11.7476 9.80401 11.4795 10.4751L11.4111 10.6763L11.3652 10.8599C11.3648 10.8621 11.3647 10.8644 11.3643 10.8667C11.3572 10.9006 11.3516 10.9349 11.3457 10.9692C11.3401 11.0023 11.3337 11.0354 11.3291 11.0688C11.3236 11.1086 11.3205 11.1488 11.3164 11.189C11.3136 11.2163 11.3098 11.2435 11.3076 11.271C11.3049 11.3054 11.3026 11.34 11.3008 11.3745C11.2992 11.4051 11.2988 11.4357 11.2978 11.4663C11.2945 11.5755 11.2941 11.6846 11.2978 11.7925C11.3006 11.8702 11.308 11.947 11.3135 12.0229C11.3176 12.0799 11.3189 12.1364 11.3242 12.1919L11.4111 12.8726C11.4238 13.0057 11.4201 13.1431 11.4219 13.2769H11.4228C11.5071 13.2171 11.5927 13.1601 11.6797 13.106C12.2906 12.7259 12.9685 12.4871 13.6894 12.4331C13.7922 12.429 13.8987 12.4273 14.0078 12.4292C14.1171 12.4311 14.2288 12.4369 14.3418 12.4458C14.6246 12.4681 14.9145 12.5142 15.1904 12.5913C15.4107 12.6529 15.6221 12.734 15.8135 12.8394C15.8616 12.8659 15.9086 12.8938 15.9541 12.9233L16.085 13.0161C16.1272 13.0487 16.1681 13.0827 16.207 13.1187C16.228 13.0647 16.2336 12.999 16.2451 12.9419L16.3037 12.6558C16.3652 12.337 16.416 12.0242 16.4375 11.7046C16.4447 11.5981 16.4492 11.4908 16.4492 11.3823C16.4493 10.5516 16.419 10.1389 15.6943 9.82471C15.5657 9.74767 15.419 9.67768 15.2539 9.60791C15.2224 9.59459 15.1911 9.57917 15.1582 9.56592L14.4023 9.28076C14.3335 9.25579 14.25 9.21951 14.166 9.19092C14.1031 9.16944 14.0396 9.15288 13.9814 9.14795C13.9622 9.14633 13.9436 9.14564 13.9258 9.14697L13.0488 9.48291Z" fill="#3B82F6"/>
</svg>
